ply
format ascii 1.0
comment VCGLIB generated
element vertex 372
property float x
property float y
property float z
property float nx
property float ny
property float nz
property uchar red
property uchar green
property uchar blue
property uchar alpha
property float texture_u
property float texture_v
element face 124
property list uchar int vertex_indices
end_header
0 -2.83789 -10 0.09801878 0 -0.9951846 150 150 150 255 0.000000 0.500000
0 2.83789 -10 0.09801878 0 -0.9951846 150 150 150 255 0.000000 0.500000
1.9509 -2.83789 -9.80785 0.09801878 0 -0.9951846 150 150 150 255 0.009608 0.597545
1.9509 2.83789 -9.80785 0.09801878 0 -0.9951846 150 150 150 255 0.009608 0.597545
3.82683 -2.83789 -9.2388 0.2902813 0 -0.9569414 150 150 150 255 0.038060 0.691342
3.82683 2.83789 -9.2388 0.2902813 0 -0.9569414 150 150 150 255 0.038060 0.691342
5.5557 -2.83789 -8.3147 0.4713966 0 -0.8819214 150 150 150 255 0.084265 0.777785
5.5557 2.83789 -8.3147 0.4713966 0 -0.8819214 150 150 150 255 0.084265 0.777785
7.07107 -2.83789 -7.07107 0.6343926 0 -0.773011 150 150 150 255 0.146446 0.853553
7.07107 2.83789 -7.07107 0.6343926 0 -0.773011 150 150 150 255 0.146446 0.853553
8.3147 -2.83789 -5.5557 0.773011 0 -0.6343926 150 150 150 255 0.222215 0.915735
8.3147 2.83789 -5.5557 0.773011 0 -0.6343926 150 150 150 255 0.222215 0.915735
9.2388 -2.83789 -3.82683 0.8819214 0 -0.4713966 150 150 150 255 0.308659 0.961940
9.2388 2.83789 -3.82683 0.8819214 0 -0.4713966 150 150 150 255 0.308659 0.961940
9.80785 -2.83789 -1.9509 0.9569414 0 -0.2902813 150 150 150 255 0.402455 0.990393
9.80785 2.83789 -1.9509 0.9569414 0 -0.2902813 150 150 150 255 0.402455 0.990393
10 -2.83789 0 0.9951846 0 -0.09801878 150 150 150 255 0.500000 1.000000
10 2.83789 0 0.9951846 0 -0.09801878 150 150 150 255 0.500000 1.000000
9.80785 -2.83789 1.9509 0.9951846 0 0.09801878 150 150 150 255 0.597545 0.990393
9.80785 2.83789 1.9509 0.9951846 0 0.09801878 150 150 150 255 0.597545 0.990393
9.2388 -2.83789 3.82683 0.9569414 0 0.2902813 150 150 150 255 0.691342 0.961940
9.2388 2.83789 3.82683 0.9569414 0 0.2902813 150 150 150 255 0.691342 0.961940
8.3147 -2.83789 5.5557 0.8819214 0 0.4713966 150 150 150 255 0.777785 0.915735
8.3147 2.83789 5.5557 0.8819214 0 0.4713966 150 150 150 255 0.777785 0.915735
7.07107 -2.83789 7.07107 0.773011 0 0.6343926 150 150 150 255 0.853553 0.853553
7.07107 2.83789 7.07107 0.773011 0 0.6343926 150 150 150 255 0.853553 0.853553
5.5557 -2.83789 8.3147 0.6343926 0 0.773011 150 150 150 255 0.915735 0.777785
5.5557 2.83789 8.3147 0.6343926 0 0.773011 150 150 150 255 0.915735 0.777785
3.82683 -2.83789 9.2388 0.4713966 0 0.8819214 150 150 150 255 0.961940 0.691342
3.82683 2.83789 9.2388 0.4713966 0 0.8819214 150 150 150 255 0.961940 0.691342
1.9509 -2.83789 9.80785 0.2902813 0 0.9569414 150 150 150 255 0.990393 0.597545
1.9509 2.83789 9.80785 0.2902813 0 0.9569414 150 150 150 255 0.990393 0.597545
0 -2.83789 10 0.09801878 0 0.9951846 150 150 150 255 1.000000 0.500000
0 2.83789 10 0.09801878 0 0.9951846 150 150 150 255 1.000000 0.500000
-1.9509 -2.83789 9.80785 -0.09801878 0 0.9951846 150 150 150 255 0.990393 0.402455
-1.9509 2.83789 9.80785 -0.09801878 0 0.9951846 150 150 150 255 0.990393 0.402455
-3.82683 -2.83789 9.2388 -0.2902813 0 0.9569414 150 150 150 255 0.961940 0.308659
-3.82683 2.83789 9.2388 -0.2902813 0 0.9569414 150 150 150 255 0.961940 0.308659
-5.5557 -2.83789 8.3147 -0.4713966 0 0.8819214 150 150 150 255 0.915735 0.222215
-5.5557 2.83789 8.3147 -0.4713966 0 0.8819214 150 150 150 255 0.915735 0.222215
-7.07107 -2.83789 7.07107 -0.6343926 0 0.773011 150 150 150 255 0.853553 0.146446
-7.07107 2.83789 7.07107 -0.6343926 0 0.773011 150 150 150 255 0.853553 0.146446
-8.31469 -2.83789 5.5557 -0.7730137 0 0.6343894 150 150 150 255 0.777785 0.084266
-8.31469 2.83789 5.5557 -0.7730137 0 0.6343894 150 150 150 255 0.777785 0.084266
-9.2388 -2.83789 3.82684 -0.881918 0 0.4714029 150 150 150 255 0.691342 0.038060
-9.2388 2.83789 3.82684 -0.881918 0 0.4714029 150 150 150 255 0.691342 0.038060
-9.80785 -2.83789 1.9509 -0.9569418 0 0.2902799 150 150 150 255 0.597545 0.009608
-9.80785 2.83789 1.9509 -0.9569418 0 0.2902799 150 150 150 255 0.597545 0.009608
-10 -2.83789 0 -0.9951846 0 0.09801878 150 150 150 255 0.500000 0.000000
-10 2.83789 0 -0.9951846 0 0.09801878 150 150 150 255 0.500000 0.000000
-9.80785 -2.83789 -1.9509 -0.9951846 0 -0.09801878 150 150 150 255 0.402455 0.009608
-9.80785 2.83789 -1.9509 -0.9951846 0 -0.09801878 150 150 150 255 0.402455 0.009608
-9.238791 -2.83789 -3.82684 -0.9569406 0 -0.2902839 150 150 150 255 0.308658 0.038060
-9.238791 2.83789 -3.82684 -0.9569406 0 -0.2902839 150 150 150 255 0.308658 0.038060
-8.3147 -2.83789 -5.5557 -0.881922 0 -0.4713953 150 150 150 255 0.222215 0.084265
-8.3147 2.83789 -5.5557 -0.881922 0 -0.4713953 150 150 150 255 0.222215 0.084265
-7.07107 -2.83789 -7.07107 -0.773011 0 -0.6343926 150 150 150 255 0.146446 0.146446
-7.07107 2.83789 -7.07107 -0.773011 0 -0.6343926 150 150 150 255 0.146446 0.146446
-5.5557 -2.83789 -8.3147 -0.6343926 0 -0.773011 150 150 150 255 0.084265 0.222215
-5.5557 2.83789 -8.3147 -0.6343926 0 -0.773011 150 150 150 255 0.084265 0.222215
-3.82683 -2.83789 -9.2388 -0.4713966 0 -0.8819214 150 150 150 255 0.038060 0.308659
-3.82683 2.83789 -9.2388 -0.4713966 0 -0.8819214 150 150 150 255 0.038060 0.308659
-1.9509 -2.83789 -9.80785 -0.2902813 0 -0.9569414 150 150 150 255 0.009608 0.402455
-1.9509 2.83789 -9.80785 0 1 0 150 150 150 255 0.009608 0.402455
0 -2.83789 -10 0.09801878 0 -0.9951846 150 150 150 255 0.000000 0.500000
1.9509 2.83789 -9.80785 0.09801878 0 -0.9951846 150 150 150 255 0.009608 0.597545
1.9509 -2.83789 -9.80785 0.2902813 0 -0.9569414 150 150 150 255 0.009608 0.597545
1.9509 2.83789 -9.80785 0.2902813 0 -0.9569414 150 150 150 255 0.009608 0.597545
1.9509 -2.83789 -9.80785 0.2902813 0 -0.9569414 150 150 150 255 0.009608 0.597545
3.82683 2.83789 -9.2388 0.2902813 0 -0.9569414 150 150 150 255 0.038060 0.691342
3.82683 -2.83789 -9.2388 0.4713966 0 -0.8819214 150 150 150 255 0.038060 0.691342
3.82683 2.83789 -9.2388 0.4713966 0 -0.8819214 150 150 150 255 0.038060 0.691342
3.82683 -2.83789 -9.2388 0.4713966 0 -0.8819214 150 150 150 255 0.038060 0.691342
5.5557 2.83789 -8.3147 0.4713966 0 -0.8819214 150 150 150 255 0.084265 0.777785
5.5557 -2.83789 -8.3147 0.6343926 0 -0.773011 150 150 150 255 0.084265 0.777785
5.5557 2.83789 -8.3147 0.6343926 0 -0.773011 150 150 150 255 0.084265 0.777785
5.5557 -2.83789 -8.3147 0.6343926 0 -0.773011 150 150 150 255 0.084265 0.777785
7.07107 2.83789 -7.07107 0.6343926 0 -0.773011 150 150 150 255 0.146446 0.853553
7.07107 -2.83789 -7.07107 0.773011 0 -0.6343926 150 150 150 255 0.146446 0.853553
7.07107 2.83789 -7.07107 0.773011 0 -0.6343926 150 150 150 255 0.146446 0.853553
7.07107 -2.83789 -7.07107 0.773011 0 -0.6343926 150 150 150 255 0.146446 0.853553
8.3147 2.83789 -5.5557 0.773011 0 -0.6343926 150 150 150 255 0.222215 0.915735
8.3147 -2.83789 -5.5557 0.8819214 0 -0.4713966 150 150 150 255 0.222215 0.915735
8.3147 2.83789 -5.5557 0.8819214 0 -0.4713966 150 150 150 255 0.222215 0.915735
8.3147 -2.83789 -5.5557 0.8819214 0 -0.4713966 150 150 150 255 0.222215 0.915735
9.2388 2.83789 -3.82683 0.8819214 0 -0.4713966 150 150 150 255 0.308659 0.961940
9.2388 -2.83789 -3.82683 0.9569414 0 -0.2902813 150 150 150 255 0.308659 0.961940
9.2388 2.83789 -3.82683 0.9569414 0 -0.2902813 150 150 150 255 0.308659 0.961940
9.2388 -2.83789 -3.82683 0.9569414 0 -0.2902813 150 150 150 255 0.308659 0.961940
9.80785 2.83789 -1.9509 0.9569414 0 -0.2902813 150 150 150 255 0.402455 0.990393
9.80785 -2.83789 -1.9509 0.9951846 0 -0.09801878 150 150 150 255 0.402455 0.990393
9.80785 2.83789 -1.9509 0.9951846 0 -0.09801878 150 150 150 255 0.402455 0.990393
9.80785 -2.83789 -1.9509 0.9951846 0 -0.09801878 150 150 150 255 0.402455 0.990393
10 2.83789 0 0.9951846 0 -0.09801878 150 150 150 255 0.500000 1.000000
10 -2.83789 0 0.9951846 0 0.09801878 150 150 150 255 0.500000 1.000000
10 2.83789 0 0.9951846 0 0.09801878 150 150 150 255 0.500000 1.000000
10 -2.83789 0 0.9951846 0 0.09801878 150 150 150 255 0.500000 1.000000
9.80785 2.83789 1.9509 0.9951846 0 0.09801878 150 150 150 255 0.597545 0.990393
9.80785 -2.83789 1.9509 0.9569414 0 0.2902813 150 150 150 255 0.597545 0.990393
9.80785 2.83789 1.9509 0.9569414 0 0.2902813 150 150 150 255 0.597545 0.990393
9.80785 -2.83789 1.9509 0.9569414 0 0.2902813 150 150 150 255 0.597545 0.990393
9.2388 2.83789 3.82683 0.9569414 0 0.2902813 150 150 150 255 0.691342 0.961940
9.2388 -2.83789 3.82683 0.8819214 0 0.4713966 150 150 150 255 0.691342 0.961940
9.2388 2.83789 3.82683 0.8819214 0 0.4713966 150 150 150 255 0.691342 0.961940
9.2388 -2.83789 3.82683 0.8819214 0 0.4713966 150 150 150 255 0.691342 0.961940
8.3147 2.83789 5.5557 0.8819214 0 0.4713966 150 150 150 255 0.777785 0.915735
8.3147 -2.83789 5.5557 0.773011 0 0.6343926 150 150 150 255 0.777785 0.915735
8.3147 2.83789 5.5557 0.773011 0 0.6343926 150 150 150 255 0.777785 0.915735
8.3147 -2.83789 5.5557 0.773011 0 0.6343926 150 150 150 255 0.777785 0.915735
7.07107 2.83789 7.07107 0.773011 0 0.6343926 150 150 150 255 0.853553 0.853553
7.07107 -2.83789 7.07107 0.6343926 0 0.773011 150 150 150 255 0.853553 0.853553
7.07107 2.83789 7.07107 0.6343926 0 0.773011 150 150 150 255 0.853553 0.853553
7.07107 -2.83789 7.07107 0.6343926 0 0.773011 150 150 150 255 0.853553 0.853553
5.5557 2.83789 8.3147 0.6343926 0 0.773011 150 150 150 255 0.915735 0.777785
5.5557 -2.83789 8.3147 0.4713966 0 0.8819214 150 150 150 255 0.915735 0.777785
5.5557 2.83789 8.3147 0.4713966 0 0.8819214 150 150 150 255 0.915735 0.777785
5.5557 -2.83789 8.3147 0.4713966 0 0.8819214 150 150 150 255 0.915735 0.777785
3.82683 2.83789 9.2388 0.4713966 0 0.8819214 150 150 150 255 0.961940 0.691342
3.82683 -2.83789 9.2388 0.2902813 0 0.9569414 150 150 150 255 0.961940 0.691342
3.82683 2.83789 9.2388 0.2902813 0 0.9569414 150 150 150 255 0.961940 0.691342
3.82683 -2.83789 9.2388 0.2902813 0 0.9569414 150 150 150 255 0.961940 0.691342
1.9509 2.83789 9.80785 0.2902813 0 0.9569414 150 150 150 255 0.990393 0.597545
1.9509 -2.83789 9.80785 0.09801878 0 0.9951846 150 150 150 255 0.990393 0.597545
1.9509 2.83789 9.80785 0.09801878 0 0.9951846 150 150 150 255 0.990393 0.597545
1.9509 -2.83789 9.80785 0.09801878 0 0.9951846 150 150 150 255 0.990393 0.597545
0 2.83789 10 0.09801878 0 0.9951846 150 150 150 255 1.000000 0.500000
0 -2.83789 10 -0.09801878 0 0.9951846 150 150 150 255 1.000000 0.500000
0 2.83789 10 -0.09801878 0 0.9951846 150 150 150 255 1.000000 0.500000
0 -2.83789 10 -0.09801878 0 0.9951846 150 150 150 255 1.000000 0.500000
-1.9509 2.83789 9.80785 -0.09801878 0 0.9951846 150 150 150 255 0.990393 0.402455
-1.9509 -2.83789 9.80785 -0.2902813 0 0.9569414 150 150 150 255 0.990393 0.402455
-1.9509 2.83789 9.80785 -0.2902813 0 0.9569414 150 150 150 255 0.990393 0.402455
-1.9509 -2.83789 9.80785 -0.2902813 0 0.9569414 150 150 150 255 0.990393 0.402455
-3.82683 2.83789 9.2388 -0.2902813 0 0.9569414 150 150 150 255 0.961940 0.308659
-3.82683 -2.83789 9.2388 -0.4713966 0 0.8819214 150 150 150 255 0.961940 0.308659
-3.82683 2.83789 9.2388 -0.4713966 0 0.8819214 150 150 150 255 0.961940 0.308659
-3.82683 -2.83789 9.2388 -0.4713966 0 0.8819214 150 150 150 255 0.961940 0.308659
-5.5557 2.83789 8.3147 -0.4713966 0 0.8819214 150 150 150 255 0.915735 0.222215
-5.5557 -2.83789 8.3147 -0.6343926 0 0.773011 150 150 150 255 0.915735 0.222215
-5.5557 2.83789 8.3147 -0.6343926 0 0.773011 150 150 150 255 0.915735 0.222215
-5.5557 -2.83789 8.3147 -0.6343926 0 0.773011 150 150 150 255 0.915735 0.222215
-7.07107 2.83789 7.07107 -0.6343926 0 0.773011 150 150 150 255 0.853553 0.146446
-7.07107 -2.83789 7.07107 -0.7730137 0 0.6343894 150 150 150 255 0.853553 0.146446
-7.07107 2.83789 7.07107 -0.7730137 0 0.6343894 150 150 150 255 0.853553 0.146446
-7.07107 -2.83789 7.07107 -0.7730137 0 0.6343894 150 150 150 255 0.853553 0.146446
-8.31469 2.83789 5.5557 -0.7730137 0 0.6343894 150 150 150 255 0.777785 0.084266
-8.31469 -2.83789 5.5557 -0.881918 0 0.4714029 150 150 150 255 0.777785 0.084266
-8.31469 2.83789 5.5557 -0.881918 0 0.4714029 150 150 150 255 0.777785 0.084266
-8.31469 -2.83789 5.5557 -0.881918 0 0.4714029 150 150 150 255 0.777785 0.084266
-9.2388 2.83789 3.82684 -0.881918 0 0.4714029 150 150 150 255 0.691342 0.038060
-9.2388 -2.83789 3.82684 -0.9569418 0 0.2902799 150 150 150 255 0.691342 0.038060
-9.2388 2.83789 3.82684 -0.9569418 0 0.2902799 150 150 150 255 0.691342 0.038060
-9.2388 -2.83789 3.82684 -0.9569418 0 0.2902799 150 150 150 255 0.691342 0.038060
-9.80785 2.83789 1.9509 -0.9569418 0 0.2902799 150 150 150 255 0.597545 0.009608
-9.80785 -2.83789 1.9509 -0.9951846 0 0.09801878 150 150 150 255 0.597545 0.009608
-9.80785 2.83789 1.9509 -0.9951846 0 0.09801878 150 150 150 255 0.597545 0.009608
-9.80785 -2.83789 1.9509 -0.9951846 0 0.09801878 150 150 150 255 0.597545 0.009608
-10 2.83789 0 -0.9951846 0 0.09801878 150 150 150 255 0.500000 0.000000
-10 -2.83789 0 -0.9951846 0 -0.09801878 150 150 150 255 0.500000 0.000000
-10 2.83789 0 -0.9951846 0 -0.09801878 150 150 150 255 0.500000 0.000000
-10 -2.83789 0 -0.9951846 0 -0.09801878 150 150 150 255 0.500000 0.000000
-9.80785 2.83789 -1.9509 -0.9951846 0 -0.09801878 150 150 150 255 0.402455 0.009608
-9.80785 -2.83789 -1.9509 -0.9569406 0 -0.2902839 150 150 150 255 0.402455 0.009608
-9.80785 2.83789 -1.9509 -0.9569406 0 -0.2902839 150 150 150 255 0.402455 0.009608
-9.80785 -2.83789 -1.9509 -0.9569406 0 -0.2902839 150 150 150 255 0.402455 0.009608
-9.238791 2.83789 -3.82684 -0.9569406 0 -0.2902839 150 150 150 255 0.308658 0.038060
-9.238791 -2.83789 -3.82684 -0.881922 0 -0.4713953 150 150 150 255 0.308658 0.038060
-9.238791 2.83789 -3.82684 -0.881922 0 -0.4713953 150 150 150 255 0.308658 0.038060
-9.238791 -2.83789 -3.82684 -0.881922 0 -0.4713953 150 150 150 255 0.308658 0.038060
-8.3147 2.83789 -5.5557 -0.881922 0 -0.4713953 150 150 150 255 0.222215 0.084265
-8.3147 -2.83789 -5.5557 -0.773011 0 -0.6343926 150 150 150 255 0.222215 0.084265
-8.3147 2.83789 -5.5557 -0.773011 0 -0.6343926 150 150 150 255 0.222215 0.084265
-8.3147 -2.83789 -5.5557 -0.773011 0 -0.6343926 150 150 150 255 0.222215 0.084265
-7.07107 2.83789 -7.07107 -0.773011 0 -0.6343926 150 150 150 255 0.146446 0.146446
-7.07107 -2.83789 -7.07107 -0.6343926 0 -0.773011 150 150 150 255 0.146446 0.146446
-7.07107 2.83789 -7.07107 -0.6343926 0 -0.773011 150 150 150 255 0.146446 0.146446
-7.07107 -2.83789 -7.07107 -0.6343926 0 -0.773011 150 150 150 255 0.146446 0.146446
-5.5557 2.83789 -8.3147 -0.6343926 0 -0.773011 150 150 150 255 0.084265 0.222215
-5.5557 -2.83789 -8.3147 -0.4713966 0 -0.8819214 150 150 150 255 0.084265 0.222215
-5.5557 2.83789 -8.3147 -0.4713966 0 -0.8819214 150 150 150 255 0.084265 0.222215
-5.5557 -2.83789 -8.3147 -0.4713966 0 -0.8819214 150 150 150 255 0.084265 0.222215
-3.82683 2.83789 -9.2388 -0.4713966 0 -0.8819214 150 150 150 255 0.038060 0.308659
1.9509 2.83789 -9.80785 0 1 0 150 150 150 255 0.009608 0.597545
0 2.83789 -10 0 1 0 150 150 150 255 0.000000 0.500000
1.9509 2.83789 -9.80785 0 1 0 150 150 150 255 0.009608 0.597545
-1.9509 2.83789 -9.80785 0 1 0 150 150 150 255 0.009608 0.402455
-3.82683 2.83789 -9.2388 0 1 0 150 150 150 255 0.038060 0.308659
1.9509 2.83789 -9.80785 0 1 0 150 150 150 255 0.009608 0.597545
-3.82683 2.83789 -9.2388 0 1 0 150 150 150 255 0.038060 0.308659
-5.5557 2.83789 -8.3147 0 1 0 150 150 150 255 0.084265 0.222215
1.9509 2.83789 -9.80785 0 1 0 150 150 150 255 0.009608 0.597545
-5.5557 2.83789 -8.3147 0 1 0 150 150 150 255 0.084265 0.222215
-7.07107 2.83789 -7.07107 0 1 0 150 150 150 255 0.146446 0.146446
1.9509 2.83789 -9.80785 0 1 0 150 150 150 255 0.009608 0.597545
-7.07107 2.83789 -7.07107 0 1 0 150 150 150 255 0.146446 0.146446
-8.3147 2.83789 -5.5557 0 1 0 150 150 150 255 0.222215 0.084265
1.9509 2.83789 -9.80785 0 1 0 150 150 150 255 0.009608 0.597545
-8.3147 2.83789 -5.5557 0 1 0 150 150 150 255 0.222215 0.084265
-9.238791 2.83789 -3.82684 0 1 0 150 150 150 255 0.308658 0.038060
1.9509 2.83789 -9.80785 0 1 0 150 150 150 255 0.009608 0.597545
-9.238791 2.83789 -3.82684 0 1 0 150 150 150 255 0.308658 0.038060
-9.80785 2.83789 -1.9509 0 1 0 150 150 150 255 0.402455 0.009608
1.9509 2.83789 -9.80785 0 1 0 150 150 150 255 0.009608 0.597545
-9.80785 2.83789 -1.9509 0 1 0 150 150 150 255 0.402455 0.009608
-10 2.83789 0 0 1 0 150 150 150 255 0.500000 0.000000
1.9509 2.83789 -9.80785 0 1 0 150 150 150 255 0.009608 0.597545
-10 2.83789 0 0 1 0 150 150 150 255 0.500000 0.000000
-9.80785 2.83789 1.9509 0 1 0 150 150 150 255 0.597545 0.009608
1.9509 2.83789 -9.80785 0 1 0 150 150 150 255 0.009608 0.597545
-9.80785 2.83789 1.9509 0 1 0 150 150 150 255 0.597545 0.009608
-9.2388 2.83789 3.82684 0 1 0 150 150 150 255 0.691342 0.038060
1.9509 2.83789 -9.80785 0 1 0 150 150 150 255 0.009608 0.597545
-9.2388 2.83789 3.82684 0 1 0 150 150 150 255 0.691342 0.038060
-8.31469 2.83789 5.5557 0 1 0 150 150 150 255 0.777785 0.084266
1.9509 2.83789 -9.80785 0 1 0 150 150 150 255 0.009608 0.597545
-8.31469 2.83789 5.5557 0 1 0 150 150 150 255 0.777785 0.084266
-7.07107 2.83789 7.07107 0 1 0 150 150 150 255 0.853553 0.146446
1.9509 2.83789 -9.80785 0 1 0 150 150 150 255 0.009608 0.597545
-7.07107 2.83789 7.07107 0 1 0 150 150 150 255 0.853553 0.146446
-5.5557 2.83789 8.3147 0 1 0 150 150 150 255 0.915735 0.222215
1.9509 2.83789 -9.80785 0 1 0 150 150 150 255 0.009608 0.597545
-5.5557 2.83789 8.3147 0 1 0 150 150 150 255 0.915735 0.222215
-3.82683 2.83789 9.2388 0 1 0 150 150 150 255 0.961940 0.308659
1.9509 2.83789 -9.80785 0 1 0 150 150 150 255 0.009608 0.597545
-3.82683 2.83789 9.2388 0 1 0 150 150 150 255 0.961940 0.308659
-1.9509 2.83789 9.80785 0 1 0 150 150 150 255 0.990393 0.402455
1.9509 2.83789 -9.80785 0 1 0 150 150 150 255 0.009608 0.597545
-1.9509 2.83789 9.80785 0 1 0 150 150 150 255 0.990393 0.402455
0 2.83789 10 0 1 0 150 150 150 255 1.000000 0.500000
1.9509 2.83789 -9.80785 0 1 0 150 150 150 255 0.009608 0.597545
0 2.83789 10 0 1 0 150 150 150 255 1.000000 0.500000
1.9509 2.83789 9.80785 0 1 0 150 150 150 255 0.990393 0.597545
1.9509 2.83789 -9.80785 0 1 0 150 150 150 255 0.009608 0.597545
1.9509 2.83789 9.80785 0 1 0 150 150 150 255 0.990393 0.597545
3.82683 2.83789 9.2388 0 1 0 150 150 150 255 0.961940 0.691342
1.9509 2.83789 -9.80785 0 1 0 150 150 150 255 0.009608 0.597545
3.82683 2.83789 9.2388 0 1 0 150 150 150 255 0.961940 0.691342
5.5557 2.83789 8.3147 0 1 0 150 150 150 255 0.915735 0.777785
1.9509 2.83789 -9.80785 0 1 0 150 150 150 255 0.009608 0.597545
5.5557 2.83789 8.3147 0 1 0 150 150 150 255 0.915735 0.777785
7.07107 2.83789 7.07107 0 1 0 150 150 150 255 0.853553 0.853553
1.9509 2.83789 -9.80785 0 1 0 150 150 150 255 0.009608 0.597545
7.07107 2.83789 7.07107 0 1 0 150 150 150 255 0.853553 0.853553
8.3147 2.83789 5.5557 0 1 0 150 150 150 255 0.777785 0.915735
1.9509 2.83789 -9.80785 0 1 0 150 150 150 255 0.009608 0.597545
8.3147 2.83789 5.5557 0 1 0 150 150 150 255 0.777785 0.915735
9.2388 2.83789 3.82683 0 1 0 150 150 150 255 0.691342 0.961940
1.9509 2.83789 -9.80785 0 1 0 150 150 150 255 0.009608 0.597545
9.2388 2.83789 3.82683 0 1 0 150 150 150 255 0.691342 0.961940
9.80785 2.83789 1.9509 0 1 0 150 150 150 255 0.597545 0.990393
1.9509 2.83789 -9.80785 0 1 0 150 150 150 255 0.009608 0.597545
9.80785 2.83789 1.9509 0 1 0 150 150 150 255 0.597545 0.990393
10 2.83789 0 0 1 0 150 150 150 255 0.500000 1.000000
1.9509 2.83789 -9.80785 0 1 0 150 150 150 255 0.009608 0.597545
10 2.83789 0 0 1 0 150 150 150 255 0.500000 1.000000
9.80785 2.83789 -1.9509 0 1 0 150 150 150 255 0.402455 0.990393
1.9509 2.83789 -9.80785 0 1 0 150 150 150 255 0.009608 0.597545
9.80785 2.83789 -1.9509 0 1 0 150 150 150 255 0.402455 0.990393
9.2388 2.83789 -3.82683 0 1 0 150 150 150 255 0.308659 0.961940
1.9509 2.83789 -9.80785 0 1 0 150 150 150 255 0.009608 0.597545
9.2388 2.83789 -3.82683 0 1 0 150 150 150 255 0.308659 0.961940
8.3147 2.83789 -5.5557 0 1 0 150 150 150 255 0.222215 0.915735
1.9509 2.83789 -9.80785 0 1 0 150 150 150 255 0.009608 0.597545
8.3147 2.83789 -5.5557 0 1 0 150 150 150 255 0.222215 0.915735
7.07107 2.83789 -7.07107 0 1 0 150 150 150 255 0.146446 0.853553
1.9509 2.83789 -9.80785 0 1 0 150 150 150 255 0.009608 0.597545
7.07107 2.83789 -7.07107 0 1 0 150 150 150 255 0.146446 0.853553
5.5557 2.83789 -8.3147 0 1 0 150 150 150 255 0.084265 0.777785
1.9509 2.83789 -9.80785 0 1 0 150 150 150 255 0.009608 0.597545
5.5557 2.83789 -8.3147 0 1 0 150 150 150 255 0.084265 0.777785
3.82683 2.83789 -9.2388 0 1 0 150 150 150 255 0.038060 0.691342
-3.82683 -2.83789 -9.2388 -0.2902813 0 -0.9569414 150 150 150 255 0.038060 0.308659
-3.82683 2.83789 -9.2388 -0.2902813 0 -0.9569414 150 150 150 255 0.038060 0.308659
-1.9509 2.83789 -9.80785 -0.2902813 0 -0.9569414 150 150 150 255 0.009608 0.402455
-3.82683 -2.83789 -9.2388 -0.2902813 0 -0.9569414 150 150 150 255 0.038060 0.308659
-1.9509 2.83789 -9.80785 -0.2902813 0 -0.9569414 150 150 150 255 0.009608 0.402455
-1.9509 -2.83789 -9.80785 -0.09801878 0 -0.9951846 150 150 150 255 0.009608 0.402455
-1.9509 2.83789 -9.80785 -0.09801878 0 -0.9951846 150 150 150 255 0.009608 0.402455
0 2.83789 -10 -0.09801878 0 -0.9951846 150 150 150 255 0.000000 0.500000
-1.9509 -2.83789 -9.80785 -0.09801878 0 -0.9951846 150 150 150 255 0.009608 0.402455
0 2.83789 -10 -0.09801878 0 -0.9951846 150 150 150 255 0.000000 0.500000
0 -2.83789 -10 -0.09801878 0 -0.9951846 150 150 150 255 0.000000 0.500000
0 -2.83789 -10 0 -1 0 150 150 150 255 0.000000 0.500000
1.9509 -2.83789 -9.80785 0 -1 0 150 150 150 255 0.009608 0.597545
3.82683 -2.83789 -9.2388 0 -1 0 150 150 150 255 0.038060 0.691342
0 -2.83789 -10 0 -1 0 150 150 150 255 0.000000 0.500000
3.82683 -2.83789 -9.2388 0 -1 0 150 150 150 255 0.038060 0.691342
5.5557 -2.83789 -8.3147 0 -1 0 150 150 150 255 0.084265 0.777785
0 -2.83789 -10 0 -1 0 150 150 150 255 0.000000 0.500000
5.5557 -2.83789 -8.3147 0 -1 0 150 150 150 255 0.084265 0.777785
7.07107 -2.83789 -7.07107 0 -1 0 150 150 150 255 0.146446 0.853553
0 -2.83789 -10 0 -1 0 150 150 150 255 0.000000 0.500000
7.07107 -2.83789 -7.07107 0 -1 0 150 150 150 255 0.146446 0.853553
8.3147 -2.83789 -5.5557 0 -1 0 150 150 150 255 0.222215 0.915735
0 -2.83789 -10 0 -1 0 150 150 150 255 0.000000 0.500000
8.3147 -2.83789 -5.5557 0 -1 0 150 150 150 255 0.222215 0.915735
9.2388 -2.83789 -3.82683 0 -1 0 150 150 150 255 0.308659 0.961940
0 -2.83789 -10 0 -1 0 150 150 150 255 0.000000 0.500000
9.2388 -2.83789 -3.82683 0 -1 0 150 150 150 255 0.308659 0.961940
9.80785 -2.83789 -1.9509 0 -1 0 150 150 150 255 0.402455 0.990393
0 -2.83789 -10 0 -1 0 150 150 150 255 0.000000 0.500000
9.80785 -2.83789 -1.9509 0 -1 0 150 150 150 255 0.402455 0.990393
10 -2.83789 0 0 -1 0 150 150 150 255 0.500000 1.000000
0 -2.83789 -10 0 -1 0 150 150 150 255 0.000000 0.500000
10 -2.83789 0 0 -1 0 150 150 150 255 0.500000 1.000000
9.80785 -2.83789 1.9509 0 -1 0 150 150 150 255 0.597545 0.990393
0 -2.83789 -10 0 -1 0 150 150 150 255 0.000000 0.500000
9.80785 -2.83789 1.9509 0 -1 0 150 150 150 255 0.597545 0.990393
9.2388 -2.83789 3.82683 0 -1 0 150 150 150 255 0.691342 0.961940
0 -2.83789 -10 0 -1 0 150 150 150 255 0.000000 0.500000
9.2388 -2.83789 3.82683 0 -1 0 150 150 150 255 0.691342 0.961940
8.3147 -2.83789 5.5557 0 -1 0 150 150 150 255 0.777785 0.915735
0 -2.83789 -10 0 -1 0 150 150 150 255 0.000000 0.500000
8.3147 -2.83789 5.5557 0 -1 0 150 150 150 255 0.777785 0.915735
7.07107 -2.83789 7.07107 0 -1 0 150 150 150 255 0.853553 0.853553
0 -2.83789 -10 0 -1 0 150 150 150 255 0.000000 0.500000
7.07107 -2.83789 7.07107 0 -1 0 150 150 150 255 0.853553 0.853553
5.5557 -2.83789 8.3147 0 -1 0 150 150 150 255 0.915735 0.777785
0 -2.83789 -10 0 -1 0 150 150 150 255 0.000000 0.500000
5.5557 -2.83789 8.3147 0 -1 0 150 150 150 255 0.915735 0.777785
3.82683 -2.83789 9.2388 0 -1 0 150 150 150 255 0.961940 0.691342
0 -2.83789 -10 0 -1 0 150 150 150 255 0.000000 0.500000
3.82683 -2.83789 9.2388 0 -1 0 150 150 150 255 0.961940 0.691342
1.9509 -2.83789 9.80785 0 -1 0 150 150 150 255 0.990393 0.597545
0 -2.83789 -10 0 -1 0 150 150 150 255 0.000000 0.500000
1.9509 -2.83789 9.80785 0 -1 0 150 150 150 255 0.990393 0.597545
0 -2.83789 10 0 -1 0 150 150 150 255 1.000000 0.500000
0 -2.83789 -10 0 -1 0 150 150 150 255 0.000000 0.500000
0 -2.83789 10 0 -1 0 150 150 150 255 1.000000 0.500000
-1.9509 -2.83789 9.80785 0 -1 0 150 150 150 255 0.990393 0.402455
0 -2.83789 -10 0 -1 0 150 150 150 255 0.000000 0.500000
-1.9509 -2.83789 9.80785 0 -1 0 150 150 150 255 0.990393 0.402455
-3.82683 -2.83789 9.2388 0 -1 0 150 150 150 255 0.961940 0.308659
0 -2.83789 -10 0 -1 0 150 150 150 255 0.000000 0.500000
-3.82683 -2.83789 9.2388 0 -1 0 150 150 150 255 0.961940 0.308659
-5.5557 -2.83789 8.3147 0 -1 0 150 150 150 255 0.915735 0.222215
0 -2.83789 -10 0 -1 0 150 150 150 255 0.000000 0.500000
-5.5557 -2.83789 8.3147 0 -1 0 150 150 150 255 0.915735 0.222215
-7.07107 -2.83789 7.07107 0 -1 0 150 150 150 255 0.853553 0.146446
0 -2.83789 -10 0 -1 0 150 150 150 255 0.000000 0.500000
-7.07107 -2.83789 7.07107 0 -1 0 150 150 150 255 0.853553 0.146446
-8.31469 -2.83789 5.5557 0 -1 0 150 150 150 255 0.777785 0.084266
0 -2.83789 -10 0 -1 0 150 150 150 255 0.000000 0.500000
-8.31469 -2.83789 5.5557 0 -1 0 150 150 150 255 0.777785 0.084266
-9.2388 -2.83789 3.82684 0 -1 0 150 150 150 255 0.691342 0.038060
0 -2.83789 -10 0 -1 0 150 150 150 255 0.000000 0.500000
-9.2388 -2.83789 3.82684 0 -1 0 150 150 150 255 0.691342 0.038060
-9.80785 -2.83789 1.9509 0 -1 0 150 150 150 255 0.597545 0.009608
0 -2.83789 -10 0 -1 0 150 150 150 255 0.000000 0.500000
-9.80785 -2.83789 1.9509 0 -1 0 150 150 150 255 0.597545 0.009608
-10 -2.83789 0 0 -1 0 150 150 150 255 0.500000 0.000000
0 -2.83789 -10 0 -1 0 150 150 150 255 0.000000 0.500000
-10 -2.83789 0 0 -1 0 150 150 150 255 0.500000 0.000000
-9.80785 -2.83789 -1.9509 0 -1 0 150 150 150 255 0.402455 0.009608
0 -2.83789 -10 0 -1 0 150 150 150 255 0.000000 0.500000
-9.80785 -2.83789 -1.9509 0 -1 0 150 150 150 255 0.402455 0.009608
-9.238791 -2.83789 -3.82684 0 -1 0 150 150 150 255 0.308658 0.038060
0 -2.83789 -10 0 -1 0 150 150 150 255 0.000000 0.500000
-9.238791 -2.83789 -3.82684 0 -1 0 150 150 150 255 0.308658 0.038060
-8.3147 -2.83789 -5.5557 0 -1 0 150 150 150 255 0.222215 0.084265
0 -2.83789 -10 0 -1 0 150 150 150 255 0.000000 0.500000
-8.3147 -2.83789 -5.5557 0 -1 0 150 150 150 255 0.222215 0.084265
-7.07107 -2.83789 -7.07107 0 -1 0 150 150 150 255 0.146446 0.146446
0 -2.83789 -10 0 -1 0 150 150 150 255 0.000000 0.500000
-7.07107 -2.83789 -7.07107 0 -1 0 150 150 150 255 0.146446 0.146446
-5.5557 -2.83789 -8.3147 0 -1 0 150 150 150 255 0.084265 0.222215
0 -2.83789 -10 0 -1 0 150 150 150 255 0.000000 0.500000
-5.5557 -2.83789 -8.3147 0 -1 0 150 150 150 255 0.084265 0.222215
-3.82683 -2.83789 -9.2388 0 -1 0 150 150 150 255 0.038060 0.308659
0 -2.83789 -10 0 -1 0 150 150 150 255 0.000000 0.500000
-3.82683 -2.83789 -9.2388 0 -1 0 150 150 150 255 0.038060 0.308659
-1.9509 -2.83789 -9.80785 0 -1 0 150 150 150 255 0.009608 0.402455
3 0 1 3 
3 64 65 2 
3 66 67 5 
3 68 69 4 
3 70 71 7 
3 72 73 6 
3 74 75 9 
3 76 77 8 
3 78 79 11 
3 80 81 10 
3 82 83 13 
3 84 85 12 
3 86 87 15 
3 88 89 14 
3 90 91 17 
3 92 93 16 
3 94 95 19 
3 96 97 18 
3 98 99 21 
3 100 101 20 
3 102 103 23 
3 104 105 22 
3 106 107 25 
3 108 109 24 
3 110 111 27 
3 112 113 26 
3 114 115 29 
3 116 117 28 
3 118 119 31 
3 120 121 30 
3 122 123 33 
3 124 125 32 
3 126 127 35 
3 128 129 34 
3 130 131 37 
3 132 133 36 
3 134 135 39 
3 136 137 38 
3 138 139 41 
3 140 141 40 
3 142 143 43 
3 144 145 42 
3 146 147 45 
3 148 149 44 
3 150 151 47 
3 152 153 46 
3 154 155 49 
3 156 157 48 
3 158 159 51 
3 160 161 50 
3 162 163 53 
3 164 165 52 
3 166 167 55 
3 168 169 54 
3 170 171 57 
3 172 173 56 
3 174 175 59 
3 176 177 58 
3 178 179 61 
3 180 181 60 
3 182 183 63 
3 184 185 186 
3 187 188 189 
3 190 191 192 
3 193 194 195 
3 196 197 198 
3 199 200 201 
3 202 203 204 
3 205 206 207 
3 208 209 210 
3 211 212 213 
3 214 215 216 
3 217 218 219 
3 220 221 222 
3 223 224 225 
3 226 227 228 
3 229 230 231 
3 232 233 234 
3 235 236 237 
3 238 239 240 
3 241 242 243 
3 244 245 246 
3 247 248 249 
3 250 251 252 
3 253 254 255 
3 256 257 258 
3 259 260 261 
3 262 263 264 
3 265 266 267 
3 268 269 270 
3 271 272 273 
3 274 275 62 
3 276 277 278 
3 279 280 281 
3 282 283 284 
3 285 286 287 
3 288 289 290 
3 291 292 293 
3 294 295 296 
3 297 298 299 
3 300 301 302 
3 303 304 305 
3 306 307 308 
3 309 310 311 
3 312 313 314 
3 315 316 317 
3 318 319 320 
3 321 322 323 
3 324 325 326 
3 327 328 329 
3 330 331 332 
3 333 334 335 
3 336 337 338 
3 339 340 341 
3 342 343 344 
3 345 346 347 
3 348 349 350 
3 351 352 353 
3 354 355 356 
3 357 358 359 
3 360 361 362 
3 363 364 365 
3 366 367 368 
3 369 370 371 
